<svg xmlns="http://www.w3.org/2000/svg" xmlns:xlink="http://www.w3.org/1999/xlink" id="Layer_1" x="0" y="0" enable-background="new 0 0 20 20" version="1.1" viewBox="0 0 20 20" xml:space="preserve"><style type="text/css">.st0{fill:#3e3d40}</style><path id="Combined-Shape" d="M10.5,8.7L5.2,3.3c-0.5-0.5-1.3-0.5-1.8,0l0,0c-0.5,0.5-0.5,1.3,0,1.8l5.3,5.3l-5.3,5.3	c-0.5,0.5-0.5,1.3,0,1.8l0,0c0.5,0.5,1.3,0.5,1.8,0l5.3-5.3l5.3,5.3c0.5,0.5,1.3,0.5,1.8,0l0,0c0.5-0.5,0.5-1.3,0-1.8l-5.3-5.3	l5.3-5.3c0.5-0.5,0.5-1.3,0-1.8l0,0c-0.5-0.5-1.3-0.5-1.8,0L10.5,8.7z" class="st0"/></svg>