<svg xmlns="http://www.w3.org/2000/svg" xmlns:xlink="http://www.w3.org/1999/xlink" id="Layer_1" x="0" y="0" enable-background="new 0 0 64 64" version="1.1" viewBox="0 0 64 64" xml:space="preserve"><style type="text/css">.st0{fill:#fff}</style><g id="Visual-design"><g id="_x31_.2-Div-selection" transform="translate(-575.000000, -503.000000)"><g id="Introduction" transform="translate(250.000000, 503.000000)"><g id="icon-welcomeface" transform="translate(325.000000, 0.000000)"><g id="Layer_1_1_"><path id="Shape" d="M11.4,0.9v2.9h-6c-0.9,0-1.5,0.8-1.5,1.5v6H0.8V3.8c0-1.7,1.4-3.1,3.1-3.1h7.6v0.2H11.4z" class="st0"/><path id="Shape_1_" d="M63.2,11.4h-3.1v-6c0-0.8-0.6-1.5-1.5-1.5h-6v-3h7.6c1.7,0,3.1,1.4,3.1,3.1L63.2,11.4 L63.2,11.4z" class="st0"/><path id="Shape_2_" d="M52.6,63.2v-3.1h6c0.9,0,1.5-0.6,1.5-1.5v-6h3.1v7.6c0,1.7-1.4,3.1-3.1,3.1L52.6,63.2 L52.6,63.2z" class="st0"/><path id="Shape_3_" d="M0.8,52.7h3.1v6c0,0.9,0.6,1.5,1.5,1.5h6v3.1H3.8c-1.7,0-3.1-1.4-3.1-3.1L0.8,52.7L0.8,52.7 z" class="st0"/><path id="Shape_6_" d="M33.3,49.2H33c-4.6-0.1-7.8-3.6-7.9-3.8c-0.6-0.8-0.6-2,0.1-2.7c0.8-0.8,1.9-0.6,2.6,0.1 c0,0,2.3,2.6,5.2,2.6c1.8,0,3.6-0.9,5.2-2.6c0.8-0.8,1.9-0.8,2.7,0s0.8,1.9,0,2.7C38.7,47.9,36,49.2,33.3,49.2z" class="st0"/></g></g></g></g></g></svg>